<svg width="32" height="32" viewBox="0 0 32 32" fill="none" xmlns="http://www.w3.org/2000/svg">
<path fill-rule="evenodd" clip-rule="evenodd" d="M24.9429 7.05703C25.4636 7.57773 25.4636 8.42195 24.9429 8.94265L8.94289 24.9426C8.42219 25.4633 7.57797 25.4633 7.05727 24.9426C6.53657 24.4219 6.53657 23.5777 7.05727 23.057L23.0573 7.05703C23.578 6.53633 24.4222 6.53633 24.9429 7.05703Z" fill="url(#paint0_linear_15142_9217)"/>
<path fill-rule="evenodd" clip-rule="evenodd" d="M7.05727 7.05703C7.57797 6.53633 8.42219 6.53633 8.94289 7.05703L24.9429 23.057C25.4636 23.5777 25.4636 24.4219 24.9429 24.9426C24.4222 25.4633 23.578 25.4633 23.0573 24.9426L7.05727 8.94265C6.53657 8.42195 6.53657 7.57773 7.05727 7.05703Z" fill="url(#paint1_linear_15142_9217)"/>
<defs>
<linearGradient id="paint0_linear_15142_9217" x1="15.6639" y1="-28.0418" x2="-56.4799" y2="29.1754" gradientUnits="userSpaceOnUse">
<stop stop-color="#F83600"/>
<stop offset="1" stop-color="#F9D423"/>
</linearGradient>
<linearGradient id="paint1_linear_15142_9217" x1="15.6639" y1="-28.0418" x2="-56.4799" y2="29.1754" gradientUnits="userSpaceOnUse">
<stop stop-color="#F83600"/>
<stop offset="1" stop-color="#F9D423"/>
</linearGradient>
</defs>
</svg>
