<svg width="32" height="32" viewBox="0 0 32 32" fill="none" xmlns="http://www.w3.org/2000/svg">
<path fill-rule="evenodd" clip-rule="evenodd" d="M2.66675 16C2.66675 15.2636 3.2637 14.6666 4.00008 14.6666H28.0001C28.7365 14.6666 29.3334 15.2636 29.3334 16C29.3334 16.7363 28.7365 17.3333 28.0001 17.3333H4.00008C3.2637 17.3333 2.66675 16.7363 2.66675 16Z" fill="#363636"/>
<path fill-rule="evenodd" clip-rule="evenodd" d="M2.66675 7.99996C2.66675 7.26358 3.2637 6.66663 4.00008 6.66663H28.0001C28.7365 6.66663 29.3334 7.26358 29.3334 7.99996C29.3334 8.73634 28.7365 9.33329 28.0001 9.33329H4.00008C3.2637 9.33329 2.66675 8.73634 2.66675 7.99996Z" fill="#363636"/>
<path fill-rule="evenodd" clip-rule="evenodd" d="M2.66675 24C2.66675 23.2636 3.2637 22.6666 4.00008 22.6666H28.0001C28.7365 22.6666 29.3334 23.2636 29.3334 24C29.3334 24.7363 28.7365 25.3333 28.0001 25.3333H4.00008C3.2637 25.3333 2.66675 24.7363 2.66675 24Z" fill="#363636"/>
</svg>
